<svg xmlns="http://www.w3.org/2000/svg" xml:space="preserve" width="163.839" height="163.839" style="shape-rendering:geometricPrecision;text-rendering:geometricPrecision;image-rendering:optimizeQuality;fill-rule:evenodd;clip-rule:evenodd" version="1.1" viewBox="0 0 1707 1707"><g id="Layer_x0020_1"><path d="M853 1574c-222 0-422-172-509-439-8-25 30-37 38-12 81 249 266 411 471 411 283 0 514-305 514-681 0-375-231-680-514-680-299 0-530 337-512 722 1 27-39 28-40 2-19-408 230-764 552-764 305 0 554 323 554 720 0 398-249 721-554 721z" class="fil0"/><path d="M853 1445c-234 0-424-265-424-592 0-512 440-782 711-437 16 20-16 45-32 25-247-316-639-61-639 412 0 305 172 552 384 552s385-247 385-552c0-64-8-127-23-187-7-26 32-36 39-10 16 63 24 130 24 197 0 327-191 592-425 592z" class="fil0"/><path d="M853 1317c-181 0-310-248-294-511 2-26 42-24 40 3-15 237 96 467 254 467 141 0 256-189 256-423 0-394-299-574-452-269-12 23-48 5-36-18 56-112 141-176 232-176 163 0 296 208 296 463 0 256-133 464-296 464z" class="fil0"/><path d="M853 1188c-93 0-167-147-167-335 0-187 74-334 167-334 95 0 168 149 167 338 0 24-40 29-40-4 0-176-65-294-127-294-61 0-127 118-127 294 0 233 120 391 207 227 12-24 48-5 35 18-30 58-71 90-115 90zM1406 1707h-227c-26 0-26-40 0-40h227c33 0 60-28 60-61v-186c0-26 40-26 40 0v186c0 55-45 101-100 101zm-879 0H301c-56 0-101-46-101-101v-186c0-26 40-26 40 0v186c0 33 28 61 61 61h226c27 0 27 40 0 40zm959-1400c-11 0-20-9-20-20V101c0-34-27-61-60-61h-227c-26 0-26-40 0-40h227c55 0 100 45 100 101v186c0 11-9 20-20 20zm-1266 0c-11 0-20-9-20-20V101C200 45 245 0 301 0h226c27 0 27 40 0 40H301c-33 0-61 27-61 61v186c0 11-9 20-20 20z" class="fil0"/><path d="M1564 708H143c-27 0-27-40 0-40h1421c26 0 26 40 0 40z" class="fil0"/></g>

</svg>